<svg xmlns="http://www.w3.org/2000/svg" viewBox="0 0 100 100" width="100" height="100"><rect x="3" y="3" width="94" height="94" fill="none" stroke="#1b1612" stroke-width="1.4"></rect><circle cx="14" cy="14" r="2" fill="none" stroke="#d9cfb8" stroke-width="1"></circle><circle cx="14" cy="32" r="2" fill="none" stroke="#d9cfb8" stroke-width="1"></circle><circle cx="14" cy="50" r="2" fill="none" stroke="#d9cfb8" stroke-width="1"></circle><circle cx="14" cy="86" r="2" fill="none" stroke="#d9cfb8" stroke-width="1"></circle><circle cx="32" cy="14" r="2" fill="none" stroke="#d9cfb8" stroke-width="1"></circle><circle cx="32" cy="32" r="2" fill="none" stroke="#d9cfb8" stroke-width="1"></circle><circle cx="32" cy="68" r="2" fill="none" stroke="#d9cfb8" stroke-width="1"></circle><circle cx="32" cy="86" r="2" fill="none" stroke="#d9cfb8" stroke-width="1"></circle><circle cx="50" cy="14" r="2" fill="none" stroke="#d9cfb8" stroke-width="1"></circle><circle cx="50" cy="32" r="2" fill="none" stroke="#d9cfb8" stroke-width="1"></circle><circle cx="50" cy="50" r="2" fill="none" stroke="#d9cfb8" stroke-width="1"></circle><circle cx="50" cy="86" r="2" fill="none" stroke="#d9cfb8" stroke-width="1"></circle><circle cx="68" cy="14" r="2" fill="none" stroke="#d9cfb8" stroke-width="1"></circle><circle cx="68" cy="50" r="2" fill="none" stroke="#d9cfb8" stroke-width="1"></circle><circle cx="68" cy="68" r="2" fill="none" stroke="#d9cfb8" stroke-width="1"></circle><circle cx="68" cy="86" r="2" fill="none" stroke="#d9cfb8" stroke-width="1"></circle><circle cx="86" cy="14" r="2" fill="none" stroke="#d9cfb8" stroke-width="1"></circle><circle cx="86" cy="32" r="2" fill="none" stroke="#d9cfb8" stroke-width="1"></circle><circle cx="86" cy="68" r="2" fill="none" stroke="#d9cfb8" stroke-width="1"></circle><circle cx="86" cy="86" r="2" fill="none" stroke="#d9cfb8" stroke-width="1"></circle><line x1="14" y1="68" x2="32" y2="50" stroke="#1b1612" stroke-width="1.5" stroke-linecap="round"></line><line x1="32" y1="50" x2="50" y2="68" stroke="#1b1612" stroke-width="1.5" stroke-linecap="round"></line><line x1="50" y1="68" x2="68" y2="32" stroke="#1b1612" stroke-width="1.5" stroke-linecap="round"></line><line x1="68" y1="32" x2="86" y2="50" stroke="#1b1612" stroke-width="1.5" stroke-linecap="round"></line><circle cx="14" cy="68" r="4" fill="#b85c0a"></circle><circle cx="32" cy="50" r="3" fill="#1b1612"></circle><circle cx="50" cy="68" r="3" fill="#1b1612"></circle><circle cx="68" cy="32" r="3" fill="#1b1612"></circle><circle cx="86" cy="50" r="3.6" fill="#3a6b5c"></circle></svg>